HIERARCHY
ROOT Hips
{
  OFFSET -10.0563 7.73376 -472.55
  CHANNELS 6 Xposition Yposition Zposition Zrotation Xrotation Yrotation
  JOINT Spine
  {
    OFFSET 0 0 0
    CHANNELS 3 Zrotation Xrotation Yrotation
    JOINT Spine1
    {
      OFFSET 19 0 0
      CHANNELS 3 Zrotation Xrotation Yrotation
      JOINT Neck
      {
        OFFSET 22.5 0.6 0
        CHANNELS 3 Zrotation Xrotation Yrotation
        JOINT Head
        {
          OFFSET 14 0.0308777 0
          CHANNELS 3 Zrotation Xrotation Yrotation
          End Site
          {
            OFFSET 17 0 0
          }
        }
      }
      JOINT LeftShoulder
      {
        OFFSET 19.8 3.7 4.3
        CHANNELS 3 Zrotation Xrotation Yrotation
        JOINT LeftArm
        {
          OFFSET 8 0 0
          CHANNELS 3 Zrotation Xrotation Yrotation
          JOINT LeftForeArm
          {
            OFFSET 15.2 0 0
            CHANNELS 3 Zrotation Xrotation Yrotation
            JOINT LeftHand
            {
              OFFSET 17.8 0 0
              CHANNELS 3 Zrotation Xrotation Yrotation
              End Site
              {
                OFFSET 7.2 0 0
              }
            }
          }
        }
      }
      JOINT RightShoulder
      {
        OFFSET 19.8 3.7 -4.3
        CHANNELS 3 Zrotation Xrotation Yrotation
        JOINT RightArm
        {
          OFFSET 8 0 0.151654
          CHANNELS 3 Zrotation Xrotation Yrotation
          JOINT RightForeArm
          {
            OFFSET 15.2 0 0
            CHANNELS 3 Zrotation Xrotation Yrotation
            JOINT RightHand
            {
              OFFSET 17.8 0 0
              CHANNELS 3 Zrotation Xrotation Yrotation
              End Site
              {
                OFFSET 7.2 0 0
              }
            }
          }
        }
      }
    }
  }
  JOINT LeftUpLeg
  {
    OFFSET 5.98425 -7.666 4.78879
    CHANNELS 3 Zrotation Xrotation Yrotation
    JOINT LeftLeg
    {
      OFFSET 16 0 0
      CHANNELS 3 Zrotation Xrotation Yrotation
      JOINT LeftFoot
      {
        OFFSET 18 0 0
        CHANNELS 3 Zrotation Xrotation Yrotation
        End Site
        {
          OFFSET 0 -10.8 0
        }
      }
    }
  }
  JOINT RightUpLeg
  {
    OFFSET 5.98425 -7.66598 -4.78879
    CHANNELS 3 Zrotation Xrotation Yrotation
    JOINT RightLeg
    {
      OFFSET 16 0 0
      CHANNELS 3 Zrotation Xrotation Yrotation
      JOINT RightFoot
      {
        OFFSET 18 0 0
        CHANNELS 3 Zrotation Xrotation Yrotation
        End Site
        {
          OFFSET 0 -10.8 0
        }
      }
    }
  }
  JOINT Tail
  {
    OFFSET 6.83696 -0.722574 0
    CHANNELS 3 Zrotation Xrotation Yrotation
    JOINT Tail1
    {
      OFFSET 12 0 0
      CHANNELS 3 Zrotation Xrotation Yrotation
      End Site
      {
        OFFSET 12 0 0
      }
    }
  }
}
MOTION
Frames:	14
Frame Time:	0.0166667
-28.0276 6.56572 -8.44765 -177.237 -78.4267 -83.9595 -136.642 1.70414 0.290414 12.7484 1.6919 0.0239218 8.34594 8.01002 -13.1889 144.962 82.407 -111.809 -109.264 -35.0481 -138.112 109.522 -65.5625 -136.64 -68.0615 10.1641 -0.55687 2.57092 0.868391 -15.6189 75.7205 -30.2967 46.795 101.365 -64.4982 -5.96226 -78.7369 -13.9048 1.53128 6.88191 -0.219093 -4.77556 -165.752 65.7996 29.5791 151.165 47.5718 2.31347 -7.80272 1.50732 17.9751 -88.8016 -77.3879 18.5414 155.974 -44.8547 -7.90255 -46.6532 0.521524 -33.4953 96.9371 6.37496 -39.2292 5.60012 -5.48482 14.7592 
-28.046 6.56281 -8.45138 -177.499 -78.4031 -84.2581 -136.73 1.68073 0.311057 12.8904 1.66454 -0.0606765 8.45192 7.53526 -12.9013 149.646 83.0226 -116.832 -109.311 -35.0614 -138.214 108.385 -65.2723 -137.629 -68.3061 10.9038 -0.586223 2.35571 0.681458 -14.1594 75.7177 -30.3086 46.8125 101.103 -64.7151 -5.94662 -78.6862 -13.5221 1.53034 7.28894 -0.281019 -4.50137 -165.494 65.6029 29.3059 151.184 47.381 2.28439 -7.71816 1.50761 17.941 -88.6128 -77.6808 18.5467 156.058 -44.6847 -7.8619 -46.6303 0.529931 -33.6174 96.9689 6.4161 -39.2776 5.56794 -5.49635 14.7363 
-28.0655 6.58915 -8.46094 -177.506 -78.4704 -84.2597 -136.903 1.67476 0.298538 13.1071 1.66684 -0.093723 8.44809 6.85833 -12.4585 154.969 83.7422 -122.348 -109.335 -35.1613 -138.079 109.583 -65.5775 -136.97 -68.2356 10.579 -0.381055 2.2945 0.750665 -14.6304 75.6539 -30.4318 46.8695 100.78 -64.9703 -5.82335 -78.5813 -13.9278 1.32837 6.71168 -0.174072 -4.85961 -165.304 65.5271 29.0792 151.148 47.2579 2.26715 -7.66079 1.50805 17.8896 -89.1103 -77.348 18.0847 156.051 -44.6383 -7.83563 -46.7522 0.551863 -33.484 96.8848 6.45815 -39.3336 5.60407 -5.51941 14.7772 
-28.0635 6.60544 -8.46176 -177.51 -78.5111 -84.2442 -136.98 1.66425 0.265285 13.2166 1.67156 -0.0900163 8.39126 6.15491 -11.9826 162.171 84.4093 -129.525 -109.313 -35.2337 -137.873 111.882 -66.125 -135.387 -67.9489 9.45085 -0.173598 2.70846 0.939754 -16.2648 75.5308 -30.6304 46.89 100.693 -65.0753 -5.76201 -78.434 -14.611 1.19111 5.93049 -0.0257312 -5.52294 -165.375 65.5812 29.1543 151.125 47.3577 2.27735 -7.66971 1.51272 17.8773 -88.8806 -77.1605 18.3478 155.92 -45.1059 -7.93751 -47.0145 0.619597 -33.381 96.8538 6.42847 -39.3791 5.62574 -5.50666 14.8376 
-28.0635 6.57165 -8.45363 -178.066 -78.4212 -84.8178 -136.866 1.62934 0.237148 13.1344 1.6486 -0.0892059 8.61304 5.53183 -11.4469 171.731 84.8929 -139.535 -109.326 -35.219 -137.938 111.41 -66.1019 -135.741 -68.1109 9.66857 -0.188312 2.69197 0.883 -15.8666 75.5553 -30.594 46.893 100.977 -65.0052 -5.45742 -78.5256 -14.5982 1.1603 5.99928 -0.0255585 -5.61515 -165.609 65.5312 29.4211 151.129 47.4783 2.29008 -7.64129 1.53428 17.9438 -87.6364 -77.3059 19.4712 155.834 -45.3277 -8.0122 -47.2994 0.696985 -33.341 97.0096 6.35541 -39.4953 5.56074 -5.45649 14.811 
-28.0712 6.54117 -8.45901 -178.518 -78.2914 -85.2922 -136.655 1.60094 0.173462 13.0051 1.64695 -0.0554011 8.7191 4.98122 -11.0356 -173.355 85.0138 -154.646 -109.346 -35.2604 -137.911 111.235 -66.1739 -135.701 -68.2427 9.72767 -0.210494 2.7193 0.873955 -15.8457 75.6445 -30.4568 46.8934 101.372 -64.9047 -4.95888 -78.779 -14.4059 1.06024 6.14275 -0.0559136 -5.45131 -165.534 65.404 29.3461 151.15 47.4345 2.28027 -7.51857 1.55004 17.9147 -87.266 -77.4474 19.7004 155.897 -45.2684 -7.99936 -47.3061 0.706829 -33.4159 97.2001 6.28647 -39.5821 5.50548 -5.4016 14.7674 
-28.0862 6.55444 -8.48276 -178.52 -78.2815 -85.2714 -136.455 1.60018 0.0914344 12.8055 1.6801 0.0123396 8.68221 4.47823 -10.624 -160.81 84.887 -167.018 -109.365 -35.3167 -137.851 111.243 -66.2843 -135.529 -68.2391 9.82086 -0.217172 2.6069 0.889477 -15.891 75.6409 -30.4268 46.8122 101.698 -64.7334 -4.8611 -78.8125 -14.4382 1.104 6.05861 -0.0642497 -5.30854 -165.259 65.2909 29.0025 151.124 47.2922 2.25832 -7.37751 1.55371 17.8158 -87.8769 -77.2252 19.0516 155.994 -44.9345 -7.90847 -47.1207 0.648975 -33.368 97.2098 6.27212 -39.6192 5.51225 -5.4041 14.7994 
-28.0973 6.5792 -8.48938 -178.517 -78.3668 -85.245 -136.407 1.58341 -0.0212986 12.6962 1.70738 0.130221 8.66265 4.0333 -10.1635 -152.007 84.7191 -175.742 -109.411 -35.3628 -137.885 111.045 -66.2832 -135.521 -68.2642 10.0804 -0.225875 2.29496 0.916618 -15.9171 75.6345 -30.3695 46.6584 101.94 -64.2274 -5.2297 -78.7967 -14.7509 1.30807 5.87285 -0.051103 -5.41407 -165.319 65.2464 28.9427 151.09 47.2983 2.25393 -7.28252 1.56916 17.7937 -88.0925 -77.0578 18.8664 156.01 -44.7641 -7.8623 -47.0622 0.624008 -33.2618 97.0989 6.31387 -39.678 5.54327 -5.44136 14.8409 
-28.0997 6.57432 -8.47838 -178.716 -78.3658 -85.4556 -136.422 1.53258 -0.160544 12.7539 1.71037 0.27108 8.6831 3.67159 -9.73332 -144.618 84.4065 176.807 -109.464 -35.3959 -137.965 111.079 -66.26 -135.359 -68.347 9.76597 -0.288629 2.73469 0.905041 -16.181 75.6448 -30.2974 46.5288 102.075 -63.753 -5.61996 -78.8899 -14.9992 1.5121 5.82188 -0.0542395 -5.54695 -165.503 65.2491 29.0594 151.098 47.4239 2.2634 -7.23506 1.58851 17.8205 -87.6431 -77.231 19.3167 155.952 -45.0141 -7.9181 -47.1668 0.655882 -33.2499 97.1025 6.33371 -39.7111 5.54093 -5.44767 14.8167 
-28.0954 6.57169 -8.47879 -178.828 -78.3827 -85.555 -136.486 1.50132 -0.281459 12.8561 1.72316 0.432933 8.7063 3.38888 -9.4301 -137.58 83.7978 169.699 -109.474 -35.4083 -137.968 111.295 -66.3189 -135.213 -68.4465 9.55478 -0.293326 3.10275 0.870002 -16.2147 75.6596 -30.2473 46.4653 102.094 -63.5079 -5.71694 -78.998 -15.1226 1.55324 5.77294 -0.0496159 -5.63103 -165.562 65.2287 29.0408 151.073 47.4394 2.26515 -7.17597 1.60333 17.835 -87.8205 -76.7431 19.3243 155.97 -44.7122 -7.86317 -47.3158 0.667912 -33.0873 97.0832 6.33145 -39.72 5.55841 -5.45254 14.8191 
-28.0766 6.60626 -8.47765 -178.74 -78.5628 -85.4403 -136.72 1.49364 -0.407545 12.9882 1.75908 0.637195 8.73163 3.15559 -9.11462 -133.225 83.3401 165.322 -109.469 -35.411 -137.948 111.561 -66.3261 -135.06 -68.4001 9.82196 -0.229082 2.7907 0.887739 -16.1682 75.6793 -30.2241 46.4817 101.93 -63.4232 -5.70616 -78.9408 -15.1151 1.48785 5.66211 -0.0345991 -5.64376 -165.689 65.178 28.9936 151.085 47.3745 2.25117 -7.12108 1.61768 17.8511 -87.8527 -76.6695 19.5424 155.947 -44.7284 -7.87205 -47.1781 0.625526 -33.0915 96.8669 6.38414 -39.7486 5.61308 -5.49544 14.8628 
-28.0643 6.63496 -8.47362 -178.675 -78.6403 -85.3647 -136.874 1.4766 -0.553986 13.1099 1.79578 0.838693 8.83934 2.95989 -8.73687 -130.652 83.0869 162.693 -109.471 -35.3997 -137.977 112.069 -66.3588 -134.774 -68.317 9.69539 -0.18702 2.87812 0.884257 -16.2545 75.7042 -30.1978 46.5087 101.696 -63.4132 -5.68173 -78.8656 -15.0355 1.43348 5.65775 -0.0338432 -5.65396 -165.593 65.1439 28.8406 151.131 47.3214 2.23908 -7.13572 1.60781 17.8183 -88.0572 -77.2229 19.2953 155.99 -44.9115 -7.89471 -46.7721 0.546432 -33.3656 96.7524 6.44858 -39.7471 5.65699 -5.53836 14.8709 
-28.0879 6.61821 -8.46288 -178.876 -78.5679 -85.586 -136.963 1.42271 -0.679012 13.3068 1.78955 0.976696 9.00491 2.84692 -8.2854 -129.41 82.9707 161.245 -109.51 -35.4348 -138.015 112.022 -66.3044 -134.812 -68.43 9.59097 -0.237404 3.27124 0.822695 -16.0775 75.7197 -30.1683 46.4954 101.475 -63.4261 -5.69235 -78.9447 -14.978 1.42595 5.81613 -0.0503801 -5.71356 -165.609 65.1147 28.9023 151.153 47.3251 2.23555 -7.14465 1.61895 17.8852 -87.8395 -77.1821 19.3719 155.998 -44.7789 -7.86725 -46.9529 0.588172 -33.2907 96.8102 6.48836 -39.6661 5.64357 -5.56493 14.8247 
-28.1007 6.598 -8.43885 -179.111 -78.603 -85.8701 -137.17 1.35183 -0.761701 13.5369 1.7487 1.06291 9.10489 2.76599 -7.88194 -128.19 82.797 159.904 -109.561 -35.5157 -137.993 111.817 -66.1534 -134.771 -68.4701 9.75612 -0.332151 3.39913 0.769093 -15.6743 75.7487 -30.1364 46.5245 101.246 -63.5514 -5.62686 -79.0162 -14.933 1.38444 5.89789 -0.0567279 -5.72356 -165.982 65.043 29.2223 151.217 47.3281 2.2261 -7.16358 1.65427 18.0704 -85.933 -77.2629 21.2553 155.726 -45.4685 -8.05032 -47.5444 0.736634 -33.0704 96.7792 6.52038 -39.5943 5.61316 -5.57128 14.7775 
